<?xml version="1.0" encoding="UTF-8"?>
<svg version="1.1" xmlns="http://www.w3.org/2000/svg" width="495" height="600" id="front-svg">
<path className='shirt-body' d="M0 0 C2.23828125 1.2421875 2.23828125 1.2421875 4.3125 2.875 C5.35857422 3.67550781 5.35857422 3.67550781 6.42578125 4.4921875 C6.94527344 4.98976563 7.46476562 5.48734375 8 6 C8 6.66 8 7.32 8 8 C10.9841019 9.19750849 13.97204732 10.38488895 16.96289062 11.56542969 C85.69048058 38.7224799 85.69048058 38.7224799 109 57 C109.55139648 57.42716309 110.10279297 57.85432617 110.67089844 58.29443359 C120.88038539 66.26758373 125.01332113 71.90169068 128.10449219 84.51977539 C129.59188947 90.2104821 131.85566017 95.35578066 134.3125 100.6875 C139.53351887 112.12183955 143.46761455 123.90047356 147.4375 135.8125 C154.79395868 157.81453741 163.24653156 178.90316248 173.56152344 199.71020508 C174.21556152 201.03894653 174.21556152 201.03894653 174.8828125 202.39453125 C175.26840332 203.16643799 175.65399414 203.93834473 176.05126953 204.73364258 C177.06012679 207.14363278 177.57254338 209.4281644 178 212 C172.82894711 216.21812383 166.60180093 218.38135521 160.5 220.9375 C159.82970764 221.21979462 159.15941528 221.50208923 158.46881104 221.79293823 C141.65114204 228.83960935 124.37844033 234.51399773 107 240 C105.75766602 240.39300293 104.51533203 240.78600586 103.23535156 241.19091797 C96.09384582 243.4220118 89.83703796 245.14215972 82.3125 245.125 C81.17425781 245.12757813 80.03601563 245.13015625 78.86328125 245.1328125 C76 245 76 245 74 244 C73.87625 245.11761719 73.7525 246.23523438 73.625 247.38671875 C73.12775525 251.37430652 72.36441036 255.26823529 71.53955078 259.19921875 C67.67570824 277.91350408 67.99743675 295.62315525 69.1730957 314.60913086 C69.63985832 322.17441901 70.0673987 329.72095979 70.18359375 337.30078125 C70.20760254 338.61401367 70.23161133 339.92724609 70.25634766 341.28027344 C70.29155645 343.65181498 70.31066939 346.02370922 70.30615234 348.39550781 C70.66781412 369.85410668 76.61184942 391.29724975 80.91113281 412.25952148 C86.34267658 438.74363268 91.43478579 465.24708561 95.75 491.9375 C95.95628021 493.21092255 96.16256042 494.48434509 96.37509155 495.7963562 C101.97920183 530.56550531 101.97920183 530.56550531 102.9375 544.0625 C103.01806641 544.85076172 103.09863281 545.63902344 103.18164062 546.45117188 C103.45680403 550.51068136 103.38118274 553.10386647 100.796875 556.36328125 C55.49018311 599.07559553 -72.03635884 579.1065077 -130.17669678 577.49343872 C-133.85536773 577.38434182 -137.5334789 577.26348814 -141.21142578 577.13232422 C-144.74356776 577.00895646 -148.27555208 576.90967223 -151.80859375 576.81640625 C-169.14810777 576.29444364 -186.97674185 574.74840005 -201.26338005 563.84463692 C-203.82006992 561.12892211 -203.92065471 559.01558565 -203.93348122 555.378088 C-203.89557158 554.53329699 -203.85766193 553.68850597 -203.81860352 552.81811523 C-203.81023153 551.91442011 -203.80185955 551.01072498 -203.79323387 550.07964516 C-203.75595837 547.09145246 -203.66138209 544.10796441 -203.56640625 541.12109375 C-203.52853508 539.00969823 -203.49421835 536.89823627 -203.46327209 534.78672791 C-203.37290512 529.27666553 -203.23465601 523.76887165 -203.0845108 518.26015472 C-202.95135182 513.12330976 -202.85943539 507.985823 -202.76513672 502.84814453 C-202.49774543 488.89504706 -202.14356299 474.94426061 -201.77905273 460.9934082 C-200.89632331 426.94401564 -201.55992918 393.40269073 -204.03895283 359.42853069 C-206.19057225 329.86050643 -207.52697465 300.5106714 -207.16625977 270.86010742 C-207.15230667 269.70957382 -207.13835358 268.55904022 -207.12397766 267.37364197 C-207.09464355 265.2653444 -207.05872701 263.15712164 -207.014328 261.04908752 C-206.9152657 255.26299545 -207.23902542 249.7389553 -208 244 C-210.10214596 243.76813996 -210.10214596 243.76813996 -211.47265625 245.42578125 C-211.99730469 246.04839844 -212.52195312 246.67101562 -213.0625 247.3125 C-213.58972656 247.92738281 -214.11695313 248.54226562 -214.66015625 249.17578125 C-216.19270003 251.06690717 -216.19270003 251.06690717 -217 254 C-239.14859577 262.06900515 -269.7020327 249.62283305 -290.2265625 240.578125 C-297.81002467 236.93336024 -304.90688213 232.507562 -312 228 C-311.9381953 226.5197775 -311.84899672 225.04070097 -311.75 223.5625 C-311.70359375 222.73878906 -311.6571875 221.91507813 -311.609375 221.06640625 C-310.92694142 217.63236546 -309.71693569 214.87497707 -308.24853516 211.71118164 C-291.87479946 176.15577785 -278.95238941 139.09841346 -268.734375 101.34765625 C-263.16969272 80.84666964 -256.28646525 62.23349977 -237.04296875 51.06640625 C-228.31848119 46.46000284 -219.09135412 42.80776894 -210 39 C-200.4004978 34.96873977 -191.18096276 30.57732531 -182.01489258 25.62988281 C-177.0882171 23.00272519 -172.15710924 20.72802767 -166.9375 18.75 C-157.78875866 15.24183603 -150.39259118 10.64005617 -143.0078125 4.22265625 C-141 3 -141 3 -139.12670898 3.33422852 C-137.05146141 3.98388988 -135.00998381 4.69102453 -132.96484375 5.4296875 C-127.58460476 7.2381158 -122.156708 8.22112248 -116.5625 9.125 C-115.50844971 9.29676758 -114.45439941 9.46853516 -113.3684082 9.64550781 C-104.23317451 11.07234695 -95.23496604 11.80009995 -86 12 C-85.27635254 12.02578125 -84.55270508 12.0515625 -83.80712891 12.078125 C-63.4106396 12.79426243 -43.49450122 9.78784365 -23.625 5.4375 C-22.9210611 5.28393036 -22.21712219 5.13036072 -21.49185181 4.97213745 C-14.71765074 3.4799409 -6.72189149 -0.8128799 0 0 Z " fill="#DEDEDE" transform="translate(314,7)"/>
<path className='shirt-body' d="M0 0 C0.33 0.66 0.66 1.32 1 2 C-0.65 2 -2.3 2 -4 2 C-3.505 2.845625 -3.01 3.69125 -2.5 4.5625 C-0.74036913 8.59498741 -0.33521047 10.64193531 -1 15 C-2.80744546 19.10098421 -4.65960023 22.91244006 -8.87719727 24.87231445 C-14.48226341 26.86455462 -20.1841309 27.88538015 -26.0625 28.6875 C-27.41927856 28.87856323 -27.41927856 28.87856323 -28.8034668 29.07348633 C-36.90862068 30.13681976 -44.83544288 30.31180063 -53 30 C-53.495 28.515 -53.495 28.515 -54 27 C-53.67 26.34 -53.34 25.68 -53 25 C-54.82337891 25.24556641 -54.82337891 25.24556641 -56.68359375 25.49609375 C-62.80853587 26.17664287 -68.90728979 26.10867296 -75.0625 26.0625 C-76.21427734 26.05798828 -77.36605469 26.05347656 -78.55273438 26.04882812 C-81.36854518 26.03714426 -84.18424398 26.02076281 -87 26 C-87 25.67 -87 25.34 -87 25 C-88.65 24.67 -90.3 24.34 -92 24 C-92 25.98 -92 27.96 -92 30 C-94.375 29.75 -94.375 29.75 -97 29 C-98.3125 26.9375 -98.3125 26.9375 -99 25 C-99.66 25 -100.32 25 -101 25 C-101.495 24.01 -101.495 24.01 -102 23 C-102.495 23.495 -102.495 23.495 -103 24 C-104.66617115 24.04063832 -106.33388095 24.042721 -108 24 C-105.87219421 26.34058637 -103.88437779 27.70700306 -101 29 C-106.37650574 30.12531516 -106.37650574 30.12531516 -109.37109375 29.5234375 C-112.14065202 28.97199499 -114.55769743 28.96966625 -117.375 29.0625 C-122.02348185 29.11911209 -125.63415731 28.55229962 -130 27 C-129.835 27.61875 -129.67 28.2375 -129.5 28.875 C-129 31 -129 31 -129 33 C-127.02 33.33 -125.04 33.66 -123 34 C-122.938125 34.61875 -122.87625 35.2375 -122.8125 35.875 C-122.544375 36.57625 -122.27625 37.2775 -122 38 C-120.34795544 38.70211894 -118.68076231 39.36971413 -117 40 C-116.67 40.99 -116.34 41.98 -116 43 C-118.475 43.495 -118.475 43.495 -121 44 C-121 45.32 -121 46.64 -121 48 C-120.34 48.66 -119.68 49.32 -119 50 C-119.99 50.495 -119.99 50.495 -121 51 C-129.11141213 48.18847468 -136.60059939 42.62978571 -143 37 C-143.495 35.515 -143.495 35.515 -144 34 C-142.35 34.33 -140.7 34.66 -139 35 C-137.50178941 31.62902617 -137 29.79557881 -137 26 C-137.99 26 -138.98 26 -140 26 C-140 24 -140 24 -138 22 C-140.72190685 17.77895001 -140.72190685 17.77895001 -144 14 C-144.125 10.375 -144.125 10.375 -144 7 C-143.34 7 -142.68 7 -142 7 C-142.33 6.01 -142.66 5.02 -143 4 C-140.8125 3.3125 -140.8125 3.3125 -138 3 C-137.24485107 3.46067871 -136.48970215 3.92135742 -135.71166992 4.39599609 C-132.67515102 6.1921543 -130.26692339 6.74687889 -126.80078125 7.3515625 C-125.00036377 7.66830933 -125.00036377 7.66830933 -123.16357422 7.99145508 C-121.89271973 8.2005249 -120.62186523 8.40959473 -119.3125 8.625 C-118.66106018 8.73427826 -118.00962036 8.84355652 -117.33843994 8.95614624 C-107.59846409 10.58256808 -97.96561229 11.83596873 -88.08496094 11.96923828 C-85.92216573 12.00114837 -83.76321186 12.07605582 -81.6015625 12.15234375 C-61.96929582 12.67890385 -42.74146779 9.62297015 -23.625 5.4375 C-22.9210611 5.28393036 -22.21712219 5.13036072 -21.49185181 4.97213745 C-14.48775267 3.42929978 -7.00736581 -0.3892981 0 0 Z " fill="#C7C7C7" transform="translate(314,7)"/>
<path className='shirt-body' d="M0 0 C0.99 0.33 1.98 0.66 3 1 C2.67 1.33 2.34 1.66 2 2 C2.763125 1.79375 3.52625 1.5875 4.3125 1.375 C7 1 7 1 10 3 C10.66 2.34 11.32 1.68 12 1 C12 1.66 12 2.32 12 3 C12.60585937 2.855625 13.21171875 2.71125 13.8359375 2.5625 C20.0294665 1.19039511 25.65957181 0.81884491 32 1 C33.32 3.97 34.64 6.94 36 10 C35.34 10.33 34.68 10.66 34 11 C32.35 9.02 30.7 7.04 29 5 C28.34 5.33 27.68 5.66 27 6 C27.804375 6.763125 28.60875 7.52625 29.4375 8.3125 C32 11 32 11 33 14 C34.91666667 15.16666667 34.91666667 15.16666667 37 16 C37.66 16.33 38.32 16.66 39 17 C39 17.66 39 18.32 39 19 C41.64 19 44.28 19 47 19 C47 19.33 47 19.66 47 20 C22.38301544 20.15915098 -2.19987699 19.78658849 -26.80627441 19.06317139 C-28.78448839 19.00620596 -30.76284409 18.95421483 -32.74121094 18.90283203 C-60.1509589 18.17415594 -60.1509589 18.17415594 -72 13 C-68.75839583 11.91946528 -68.04477896 12.0687496 -64.875 12.875 C-59.14703084 14.14315365 -53.46959915 14.41697722 -47.62646484 14.65771484 C-42.09618979 14.90381021 -42.09618979 14.90381021 -41 16 C-37.98950039 16.0728714 -34.99107437 15.99617197 -31.98046875 15.9375 C-29 16 -29 16 -27.17993164 16.49780273 C-24.45170079 17.1263133 -21.94002427 17.1119389 -19.140625 17.09765625 C-18.02558594 17.09443359 -16.91054687 17.09121094 -15.76171875 17.08789062 C-14.02341797 17.07532227 -14.02341797 17.07532227 -12.25 17.0625 C-10.48849609 17.05573242 -10.48849609 17.05573242 -8.69140625 17.04882812 C-5.79421928 17.03705094 -2.89713546 17.02060326 0 17 C-0.495 13.04 -0.495 13.04 -1 9 C-0.34 9 0.32 9 1 9 C1.66 7.35 2.32 5.7 3 4 C1.68 4.33 0.36 4.66 -1 5 C-0.67 3.35 -0.34 1.7 0 0 Z " fill="#D6D6D6" transform="translate(198,565)"/>
<path className='shirt-body' d="M0 0 C3.16115776 1.36983503 3.9927092 1.9890638 6 5 C6.95159683 9.29393385 7.46625262 13.63674476 8 18 C8.12246094 18.77601563 8.24492188 19.55203125 8.37109375 20.3515625 C8.68008135 23.51710892 8.30716057 25.56746777 6.46875 28.15625 C5.2314492 29.55581976 3.95250685 30.92002853 2.62890625 32.23828125 C0.76865242 34.00760511 0.76865242 34.00760511 0 37 C-4.9752226 38.90135896 -9.61996886 39.32137626 -14.9375 39.25 C-15.63681641 39.24613281 -16.33613281 39.24226563 -17.05664062 39.23828125 C-22.01795841 39.15505318 -26.30826191 38.5639127 -31 37 C-31 36.67 -31 36.34 -31 36 C-22.75 36 -14.5 36 -6 36 C-6.495 33.525 -6.495 33.525 -7 31 C-6.01 30.67 -5.02 30.34 -4 30 C-4.185625 29.113125 -4.37125 28.22625 -4.5625 27.3125 C-4.98042484 24.14821189 -4.80777742 22.05160358 -4 19 C-4.804375 18.731875 -5.60875 18.46375 -6.4375 18.1875 C-7.283125 17.795625 -8.12875 17.40375 -9 17 C-9.33 16.01 -9.66 15.02 -10 14 C-10.66 14 -11.32 14 -12 14 C-12.86627399 12.40233897 -13.71766465 10.79660056 -14.5625 9.1875 C-15.03816406 8.29417969 -15.51382813 7.40085938 -16.00390625 6.48046875 C-17 4 -17 4 -16 1 C-15.67 1.99 -15.34 2.98 -15 4 C-14.01 4.33 -13.02 4.66 -12 5 C-12.33 5.66 -12.66 6.32 -13 7 C-12.01 7.33 -11.02 7.66 -10 8 C-9.5359375 8.9590625 -9.5359375 8.9590625 -9.0625 9.9375 C-7.7657662 12.45468915 -6.5778263 12.96886948 -4 14 C-4 15.32 -4 16.64 -4 18 C-2.68 18 -1.36 18 0 18 C-0.495 15.525 -0.495 15.525 -1 13 C-0.01 12.34 0.98 11.68 2 11 C1.855625 9.741875 1.71125 8.48375 1.5625 7.1875 C1.48128906 6.47980469 1.40007812 5.77210938 1.31640625 5.04296875 C1.02829265 2.80603607 1.02829265 2.80603607 0 0 Z " fill="#929292" transform="translate(97,224)"/>
<path className='shirt-body' d="M0 0 C2.336689 1.65829542 3.8267634 3.03843953 4.34765625 5.9296875 C4.45621043 7.58305111 4.5598467 9.23674071 4.66015625 10.890625 C5.14776914 15.3520027 6.30250335 19.61274935 7.453125 23.93847656 C9.90037736 33.19973884 11.31769992 42.0346768 11.625 51.625 C11.66367188 52.62917969 11.70234375 53.63335937 11.7421875 54.66796875 C11.83528622 57.11181005 11.92110913 59.55566596 12 62 C11.34 61.34 10.68 60.68 10 60 C9.01 60.495 9.01 60.495 8 61 C8 60.34 8 59.68 8 59 C6.515 58.505 6.515 58.505 5 58 C5.24234375 57.3296875 5.4846875 56.659375 5.734375 55.96875 C6.10985385 51.77222167 4.28451164 49.01859033 2.25 45.5 C1.8890625 44.84902344 1.528125 44.19804687 1.15625 43.52734375 C-0.41650362 40.70664433 -2.03423827 37.94606715 -3.765625 35.21875 C-5 33 -5 33 -5 30 C-5.66 29.67 -6.32 29.34 -7 29 C-7.6328125 27.15234375 -7.6328125 27.15234375 -8.125 24.9375 C-8.29257813 24.20402344 -8.46015625 23.47054687 -8.6328125 22.71484375 C-8.75398438 22.14894531 -8.87515625 21.58304688 -9 21 C-4.20647551 22.46651206 -2.64779167 26.51882306 -0.375 30.625 C1.02648098 33.13484175 2.4656191 35.56513302 4 38 C4.66 38 5.32 38 6 38 C5.91435791 37.35562988 5.82871582 36.71125977 5.74047852 36.04736328 C5.3461764 33.07345738 4.95432605 30.09923311 4.5625 27.125 C4.42779297 26.11179688 4.29308594 25.09859375 4.15429688 24.0546875 C3.32080824 17.7120423 2.59247343 11.36975164 2 5 C1.34 5 0.68 5 0 5 C0 3.35 0 1.7 0 0 Z " fill="#C8C8C8" transform="translate(74,129)"/>
<path className='shirt-body' d="M0 0 C1.32 0 2.64 0 4 0 C6 4.75 6 4.75 6 7 C8.97 7.495 8.97 7.495 12 8 C12.061875 8.61875 12.12375 9.2375 12.1875 9.875 C12.455625 10.57625 12.72375 11.2775 13 12 C14.65204456 12.70211894 16.31923769 13.36971413 18 14 C18.33 14.99 18.66 15.98 19 17 C17.35 17.33 15.7 17.66 14 18 C14 19.32 14 20.64 14 22 C14.66 22.66 15.32 23.32 16 24 C15.34 24.33 14.68 24.66 14 25 C5.88858787 22.18847468 -1.60059939 16.62978571 -8 11 C-8.33 10.01 -8.66 9.02 -9 8 C-6.525 8.495 -6.525 8.495 -4 9 C-3.2884375 7.329375 -3.2884375 7.329375 -2.5625 5.625 C-1.74693537 3.73289006 -0.92143645 1.84287291 0 0 Z " fill="#CCCCCC" transform="translate(179,33)"/>
<path className='shirt-body' d="M0 0 C2.97 0 5.94 0 9 0 C9.33 0.99 9.66 1.98 10 3 C10.804375 3.12375 11.60875 3.2475 12.4375 3.375 C13.7059375 3.684375 13.7059375 3.684375 15 4 C16.4807848 6.9615696 16.35314037 9.83506295 16.5625 13.125 C16.68818359 15.04699219 16.68818359 15.04699219 16.81640625 17.0078125 C16.87699219 17.99523437 16.93757813 18.98265625 17 20 C14.03 20 11.06 20 8 20 C7.67 19.01 7.34 18.02 7 17 C6.34 17.99 5.68 18.98 5 20 C3.35 19.67 1.7 19.34 0 19 C0 12.73 0 6.46 0 0 Z " fill="#C8C8C8" transform="translate(237,37)"/>
<path className='shirt-body' d="M0 0 C0.99012085 0.13631836 0.99012085 0.13631836 2.00024414 0.27539062 C5.02035904 0.68841589 8.0413978 1.09426214 11.0625 1.5 C12.10083984 1.64308594 13.13917969 1.78617188 14.20898438 1.93359375 C20.67403656 2.80309627 20.67403656 2.80309627 27.18359375 3.03125 C28.57771484 3.01578125 28.57771484 3.01578125 30 3 C30.33 3.33 30.66 3.66 31 4 C34.01049961 4.0728714 37.00892563 3.99617197 40.01953125 3.9375 C43 4 43 4 44.82006836 4.49780273 C47.54829921 5.1263133 50.05997573 5.1119389 52.859375 5.09765625 C53.97441406 5.09443359 55.08945313 5.09121094 56.23828125 5.08789062 C57.97658203 5.07532227 57.97658203 5.07532227 59.75 5.0625 C61.51150391 5.05573242 61.51150391 5.05573242 63.30859375 5.04882812 C66.20578072 5.03705094 69.10286454 5.02060326 72 5 C72.33 3.68 72.66 2.36 73 1 C73.66 1 74.32 1 75 1 C75.53367187 1.64195312 76.06734375 2.28390625 76.6171875 2.9453125 C79.89100068 5.7683055 82.98421702 5.74166531 87.125 5.875 C87.85332031 5.92140625 88.58164063 5.9678125 89.33203125 6.015625 C91.21918324 6.10631992 93.11169575 6.06225179 95 6 C95.66 5.34 96.32 4.68 97 4 C98.98 4.66 100.96 5.32 103 6 C102.505 3.525 102.505 3.525 102 1 C105.78786597 1.5260925 108.17152224 2.38103911 111 5 C111 5.66 111 6.32 111 7 C113.64 7 116.28 7 119 7 C119 7.33 119 7.66 119 8 C94.38301544 8.15915098 69.80012301 7.78658849 45.19372559 7.06317139 C43.21551161 7.00620596 41.23715591 6.95421483 39.25878906 6.90283203 C11.8490411 6.17415594 11.8490411 6.17415594 0 1 C0 0.67 0 0.34 0 0 Z " fill="#ACB0B6" transform="translate(126,577)"/>
<path className='shirt-body' d="M0 0 C0.66 0 1.32 0 2 0 C1.48455373 3.81430239 0.79433828 5.42061082 -2 8 C-5.36191058 12.3963446 -5.6617557 16.64640921 -6 22 C-5.34 22 -4.68 22 -4 22 C-4.33 26.62 -4.66 31.24 -5 36 C-2.69 36 -0.38 36 2 36 C2 36.33 2 36.66 2 37 C-0.12493141 37.02693575 -2.24995912 37.04636628 -4.375 37.0625 C-5.55835938 37.07410156 -6.74171875 37.08570313 -7.9609375 37.09765625 C-11 37 -11 37 -13 36 C-12.73646555 33.31194858 -12.39930766 30.6701179 -12 28 C-11.86207031 27.04351562 -11.72414063 26.08703125 -11.58203125 25.1015625 C-9.82736529 15.5627744 -5.67005592 7.77884332 0 0 Z " fill="#A19D9C" transform="translate(401,215)"/>
<path className='shirt-body' d="M0 0 C0.99 0.33 1.98 0.66 3 1 C3.02899599 4.77081722 3.04679729 8.54160583 3.0625 12.3125 C3.07087891 13.38435547 3.07925781 14.45621094 3.08789062 15.56054688 C3.09111328 16.58857422 3.09433594 17.61660156 3.09765625 18.67578125 C3.10289307 19.62364502 3.10812988 20.57150879 3.11352539 21.5480957 C3 24 3 24 2 27 C2.66 27 3.32 27 4 27 C4 28.65 4 30.3 4 32 C4.66 32.33 5.32 32.66 6 33 C5.34 33 4.68 33 4 33 C4 35.97 4 38.94 4 42 C2.515 42.495 2.515 42.495 1 43 C-0.75323383 34.10859988 -1.19295276 25.47817852 -1.1875 16.4375 C-1.18814453 15.39078125 -1.18878906 14.3440625 -1.18945312 13.265625 C-1.15687821 8.68736852 -1.00995648 4.48158745 0 0 Z " fill="#D0D0D1" transform="translate(108,290)"/>
<path className='shirt-body' d="M0 0 C4.18804001 1.50363551 5.50179064 4.01971852 7.625 7.8125 C8.21539062 8.85019531 8.80578125 9.88789063 9.4140625 10.95703125 C11 14 11 14 12.0859375 16.73046875 C12.94460722 19.17653416 12.94460722 19.17653416 15 21.5 C18.53953853 25.92442316 19.26138534 29.38021523 19 35 C15.53650589 33.84550196 15.41203368 33.45311728 13.84375 30.359375 C13.46089844 29.61816406 13.07804687 28.87695312 12.68359375 28.11328125 C12.29300781 27.33339844 11.90242188 26.55351562 11.5 25.75 C10.71994072 24.22334933 9.93871804 22.69729248 9.15625 21.171875 C8.78886719 20.44806641 8.42148438 19.72425781 8.04296875 18.97851562 C7.17220374 17.32667114 6.20608224 15.72555306 5.21875 14.140625 C4 12 4 12 4 9 C3.34 8.67 2.68 8.34 2 8 C1.3671875 6.15234375 1.3671875 6.15234375 0.875 3.9375 C0.70742187 3.20402344 0.53984375 2.47054687 0.3671875 1.71484375 C0.24601562 1.14894531 0.12484375 0.58304688 0 0 Z " fill="#A0A0A0" transform="translate(65,150)"/>
<path className='shirt-body' d="M0 0 C0.33 0.99 0.66 1.98 1 3 C1.87011719 3.03867187 1.87011719 3.03867187 2.7578125 3.078125 C8.315741 3.48167096 11.75769616 4.30158127 16 8 C16 8.99 16 9.98 16 11 C15.01 11.495 15.01 11.495 14 12 C11.875 11.0625 11.875 11.0625 10 10 C10 10.99 10 11.98 10 13 C7.69 13.33 5.38 13.66 3 14 C3 13.34 3 12.68 3 12 C1.88625 11.87625 0.7725 11.7525 -0.375 11.625 C-4 11 -4 11 -6 9 C-4.73046875 7.53515625 -3.4609375 6.0703125 -2.19140625 4.60546875 C-0.79128769 2.89287029 -0.79128769 2.89287029 0 0 Z " fill="#D5D5D5" transform="translate(197,45)"/>
<path className='shirt-body' d="M0 0 C2.35953094 2.35953094 2.49141413 3.77895617 3 7 C3.66 5.68 4.32 4.36 5 3 C5.66 3 6.32 3 7 3 C7.75 5.1875 7.75 5.1875 8 8 C6.125 10.625 6.125 10.625 4 13 C3.67 13.99 3.34 14.98 3 16 C-1.9752226 17.90135896 -6.61996886 18.32137626 -11.9375 18.25 C-12.63681641 18.24613281 -13.33613281 18.24226563 -14.05664062 18.23828125 C-19.01795841 18.15505318 -23.30826191 17.5639127 -28 16 C-28 15.67 -28 15.34 -28 15 C-19.75 15 -11.5 15 -3 15 C-3.33 13.35 -3.66 11.7 -4 10 C-3.01 9.67 -2.02 9.34 -1 9 C-1.20625 8.071875 -1.4125 7.14375 -1.625 6.1875 C-2 3 -2 3 0 0 Z " fill="#9F9998" transform="translate(94,245)"/>
<path className='shirt-body' d="M0 0 C2.90732248 0.96910749 5.53771766 2.33221605 8.25 3.75 C7.92 4.41 7.59 5.07 7.25 5.75 C6.26 6.08 5.27 6.41 4.25 6.75 C4.58 7.74 4.91 8.73 5.25 9.75 C5.25 11.07 5.25 12.39 5.25 13.75 C4.59 13.75 3.93 13.75 3.25 13.75 C3.25 15.73 3.25 17.71 3.25 19.75 C-4.68607955 12.02840909 -4.68607955 12.02840909 -4.9375 7 C-4.875625 5.9275 -4.81375 4.855 -4.75 3.75 C-4.09 3.75 -3.43 3.75 -2.75 3.75 C-3.08 2.76 -3.41 1.77 -3.75 0.75 C-1.75 -0.25 -1.75 -0.25 0 0 Z " fill="#A7A7A7" transform="translate(174.75,10.25)"/>
<path className='shirt-body' d="M0 0 C0.66 0.99 1.32 1.98 2 3 C1.67 3.66 1.34 4.32 1 5 C1.99 5.33 2.98 5.66 4 6 C4.66 5.67 5.32 5.34 6 5 C6.66 6.32 7.32 7.64 8 9 C5.625 10.0625 5.625 10.0625 3 11 C2.34 10.67 1.68 10.34 1 10 C1.33 11.0725 1.66 12.145 2 13.25 C3.00013363 17.00050112 3 20.14899313 3 24 C4.44632812 23.65775391 4.44632812 23.65775391 5.921875 23.30859375 C7.18515625 23.02113281 8.4484375 22.73367187 9.75 22.4375 C11.00296875 22.14746094 12.2559375 21.85742188 13.546875 21.55859375 C16.59473748 21.06555717 18.17641828 20.92333121 21 22 C13.5345605 24.77476512 6.93285519 25.36801906 -1 25 C-1.08333357 20.1666528 -0.95261487 15.76307437 0 11 C-0.66 11 -1.32 11 -2 11 C-2.05399736 9.54207116 -2.09279177 8.08357288 -2.125 6.625 C-2.15980469 5.40683594 -2.15980469 5.40683594 -2.1953125 4.1640625 C-2 2 -2 2 0 0 Z " fill="#B1B1B1" transform="translate(397,226)"/>
<path className='shirt-body' d="M0 0 C0.99012085 0.13631836 0.99012085 0.13631836 2.00024414 0.27539062 C5.02035904 0.68841589 8.0413978 1.09426214 11.0625 1.5 C12.10083984 1.64308594 13.13917969 1.78617188 14.20898438 1.93359375 C20.67403656 2.80309627 20.67403656 2.80309627 27.18359375 3.03125 C28.57771484 3.01578125 28.57771484 3.01578125 30 3 C30.33 3.33 30.66 3.66 31 4 C34.01049961 4.0728714 37.00892563 3.99617197 40.01953125 3.9375 C43 4 43 4 44.88842773 4.48413086 C47.21634481 5.05285427 49.37253859 5.20902417 51.765625 5.31640625 C52.65507812 5.35830078 53.54453125 5.40019531 54.4609375 5.44335938 C55.38132813 5.48267578 56.30171875 5.52199219 57.25 5.5625 C58.18585938 5.60568359 59.12171875 5.64886719 60.0859375 5.69335938 C62.39048641 5.7991805 64.69513839 5.90126557 67 6 C67 6.33 67 6.66 67 7 C14.76415396 7.44710693 14.76415396 7.44710693 0 1 C0 0.67 0 0.34 0 0 Z " fill="#A7ABB2" transform="translate(126,577)"/>
<path className='shirt-body' d="M0 0 C0.33 0 0.66 0 1 0 C1.05534912 0.94319092 1.11069824 1.88638184 1.16772461 2.8581543 C1.37555366 6.37135201 1.58650945 9.88433339 1.79956055 13.3972168 C1.89097654 14.91504587 1.98116079 16.43294966 2.07006836 17.95092773 C2.19838635 20.13806838 2.33119263 22.32489831 2.46484375 24.51171875 C2.543396 25.82615967 2.62194824 27.14060059 2.70288086 28.49487305 C2.95100658 31.42202252 3.3784916 34.13706772 4 37 C4.21540083 39.26835684 4.40179086 41.53961354 4.5625 43.8125 C4.64628906 44.97394531 4.73007813 46.13539063 4.81640625 47.33203125 C4.87699219 48.21246094 4.93757813 49.09289062 5 50 C4.01 50.495 4.01 50.495 3 51 C1.61470179 45.54538831 0.7603057 40.63281599 1 35 C0.34 35 -0.32 35 -1 35 C-1.17691295 23.30408812 -0.62839961 11.67553107 0 0 Z " fill="#C6C6C6" transform="translate(114,435)"/>
<path className='shirt-body' d="M0 0 C0.99 0 1.98 0 3 0 C3.9731681 2.9195043 4.1929546 5.05444951 4.31640625 8.10546875 C4.35830078 9.08837891 4.40019531 10.07128906 4.44335938 11.08398438 C4.48267578 12.10814453 4.52199219 13.13230469 4.5625 14.1875 C4.60568359 15.22326172 4.64886719 16.25902344 4.69335938 17.32617188 C4.79944366 19.8839819 4.90150146 22.44188845 5 25 C4.67 25 4.34 25 4 25 C3.01 20.71 2.02 16.42 1 12 C1 15.63 1 19.26 1 23 C0.34 23.33 -0.32 23.66 -1 24 C-1.02887236 20.18751574 -1.04675492 16.3750593 -1.0625 12.5625 C-1.07087891 11.47388672 -1.07925781 10.38527344 -1.08789062 9.26367188 C-1.09111328 8.22919922 -1.09433594 7.19472656 -1.09765625 6.12890625 C-1.10289307 5.17056885 -1.10812988 4.21223145 -1.11352539 3.22485352 C-1 1 -1 1 0 0 Z " fill="#C6C6C6" transform="translate(109,256)"/>
<path className='shirt-body' d="M0 0 C2.336689 1.65829542 3.8267634 3.03843953 4.34765625 5.9296875 C4.45585925 7.57770244 4.55665511 9.22621111 4.65234375 10.875 C5.16365685 15.47107277 6.39367742 19.84108556 7.62890625 24.29003906 C8.70689534 28.29881098 9.19969298 31.85153931 9 36 C8.01 35.67 7.02 35.34 6 35 C5.32840975 30.75076277 4.66357939 26.50049499 4 22.25 C3.80921875 21.0434375 3.6184375 19.836875 3.421875 18.59375 C3.24140625 17.43359375 3.0609375 16.2734375 2.875 15.078125 C2.70742187 14.00981445 2.53984375 12.94150391 2.3671875 11.84082031 C2 9 2 9 2 5 C1.34 5 0.68 5 0 5 C0 3.35 0 1.7 0 0 Z " fill="#C8C8C8" transform="translate(74,129)"/>
<path className='shirt-body' d="M0 0 C0 0.66 0 1.32 0 2 C-0.66 2 -1.32 2 -2 2 C-1.67 2.66 -1.34 3.32 -1 4 C0.65 4 2.3 4 4 4 C3.3515625 5.953125 3.3515625 5.953125 2 8 C-0.6015625 8.609375 -0.6015625 8.609375 -3.625 8.75 C-4.62789063 8.80671875 -5.63078125 8.8634375 -6.6640625 8.921875 C-7.82035156 8.96054687 -7.82035156 8.96054687 -9 9 C-8.67 8.01 -8.34 7.02 -8 6 C-10.97 5.505 -10.97 5.505 -14 5 C-11.56585763 3.37723842 -9.68680554 2.38255208 -7 1.375 C-6.319375 1.11460938 -5.63875 0.85421875 -4.9375 0.5859375 C-3 0 -3 0 0 0 Z " fill="#ADADAD" transform="translate(306,22)"/>
<path className='shirt-body' d="M0 0 C0.33 0.66 0.66 1.32 1 2 C-0.1875 4.6171875 -0.1875 4.6171875 -2 7.875 C-2.31670654 8.44637695 -2.63341309 9.01775391 -2.9597168 9.60644531 C-3.96410445 11.40953551 -4.98127071 13.20498057 -6 15 C-6.32693848 15.58362305 -6.65387695 16.16724609 -6.99072266 16.76855469 C-12.62026422 26.81013211 -12.62026422 26.81013211 -15 28 C-15 27.34 -15 26.68 -15 26 C-15.66 26 -16.32 26 -17 26 C-16.67 24.35 -16.34 22.7 -16 21 C-15.01 21 -14.02 21 -13 21 C-11.00860395 18.35756931 -11.00860395 18.35756931 -9.125 15 C-8.41948489 13.80846698 -7.71375583 12.61706062 -7.0078125 11.42578125 C-6.34523438 10.29527344 -5.68265625 9.16476563 -5 8 C-4.00689752 6.39155412 -3.00833926 4.78643797 -2 3.1875 C-1.34 2.135625 -0.68 1.08375 0 0 Z " fill="#C7C7C7" transform="translate(418,189)"/>
<path className='shirt-body' d="M0 0 C2.62345034 3.03248292 3.44079255 5.14098096 3.75 9.125 C3.86601562 10.42824219 3.86601562 10.42824219 3.984375 11.7578125 C4 14 4 14 3 16 C0.525 15.01 0.525 15.01 -2 14 C-1.85866501 12.22880197 -1.71176792 10.45804713 -1.5625 8.6875 C-1.48128906 7.70136719 -1.40007812 6.71523437 -1.31640625 5.69921875 C-1 3 -1 3 0 0 Z " fill="#8A8A8A" transform="translate(391,235)"/>
<path className='shirt-body' d="M0 0 C3.78786597 0.5260925 6.17152224 1.38103911 9 4 C9 4.66 9 5.32 9 6 C11.64 6 14.28 6 17 6 C17 6.33 17 6.66 17 7 C8.94641862 7.14525497 1.02124152 6.71413279 -7 6 C-6.34 5.01 -5.68 4.02 -5 3 C-3.02 3.66 -1.04 4.32 1 5 C0.67 3.35 0.34 1.7 0 0 Z " fill="#C1C2C3" transform="translate(228,578)"/>
<path className='shirt-body' d="M0 0 C0.99 0.495 0.99 0.495 2 1 C2 1.66 2 2.32 2 3 C2.99 3.33 3.98 3.66 5 4 C4.67 4.66 4.34 5.32 4 6 C4.99 6.33 5.98 6.66 7 7 C7.309375 7.639375 7.61875 8.27875 7.9375 8.9375 C9.2342338 11.45468915 10.4221737 11.96886948 13 13 C13 13.99 13 14.98 13 16 C9 16 9 16 7 15 C7 14.34 7 13.68 7 13 C6.34 13 5.68 13 5 13 C4.15930585 11.39967863 3.32768495 9.79458829 2.5 8.1875 C1.80390625 6.84751953 1.80390625 6.84751953 1.09375 5.48046875 C0 3 0 3 0 0 Z " fill="#9D9D9D" transform="translate(80,225)"/>
<path className='shirt-body' d="M0 0 C0.66 0 1.32 0 2 0 C1.47784631 3.86393733 0.75446268 5.34755445 -2 8 C-4.93478966 12.62451704 -6.69994914 16.69145898 -8 22 C-8.66 21.34 -9.32 20.68 -10 20 C-9.77637432 15.10707002 -7.04786646 11.25198818 -4.5625 7.1875 C-4.15451172 6.49462891 -3.74652344 5.80175781 -3.32617188 5.08789062 C-2.27866953 3.35344547 -1.14567971 1.67122086 0 0 Z " fill="#939393" transform="translate(401,215)"/>
<path className='shirt-body' d="M0 0 C5.85659906 1.66153012 11.4590134 3.47041916 17 6 C14.39417629 6.93065133 13.35801776 7.14917407 10.75 6.0625 C10.1725 5.711875 9.595 5.36125 9 5 C9 5.66 9 6.32 9 7 C7.02 7 5.04 7 3 7 C2.01 4.69 1.02 2.38 0 0 Z " fill="#EAEAEA" transform="translate(325,17)"/>
<path className='shirt-body' d="M0 0 C1.90401138 1.90401138 2.93520439 3.33425686 3.19921875 6.046875 C3.1886578 8.03233273 3.09915043 10.0169914 3 12 C1.02 12.99 1.02 12.99 -1 14 C-1 12.68 -1 11.36 -1 10 C-1.66 10 -2.32 10 -3 10 C-2.67 9.34 -2.34 8.68 -2 8 C-2 7.01 -2 6.02 -2 5 C-2.66 5 -3.32 5 -4 5 C-4 4.34 -4 3.68 -4 3 C-3.01 2.67 -2.02 2.34 -1 2 C-0.67 1.34 -0.34 0.68 0 0 Z " fill="#8F8F8F" transform="translate(102,238)"/>
<path className='shirt-body' d="M0 0 C0.33 0 0.66 0 1 0 C1.268125 1.175625 1.53625 2.35125 1.8125 3.5625 C2.81447119 7.60642688 4.2659924 11.2167107 6 15 C5.01 15.33 4.02 15.66 3 16 C0.69 11.71 -1.62 7.42 -4 3 C-3.01 2.67 -2.02 2.34 -1 2 C-0.67 1.34 -0.34 0.68 0 0 Z " fill="#C2C2C2" transform="translate(75,214)"/>
<path className='shirt-body' d="M0 0 C1.85776765 3.13498292 2.20140476 5.37471432 2 9 C1.34 9 0.68 9 0 9 C-0.33 16.59 -0.66 24.18 -1 32 C-1.33 32 -1.66 32 -2 32 C-2.05802751 27.41671978 -2.09360593 22.83353396 -2.125 18.25 C-2.14175781 16.94804687 -2.15851563 15.64609375 -2.17578125 14.3046875 C-2.18222656 13.05429687 -2.18867187 11.80390625 -2.1953125 10.515625 C-2.20578613 9.36352539 -2.21625977 8.21142578 -2.22705078 7.02441406 C-2.00758762 4.10107034 -1.52728122 2.46267491 0 0 Z " fill="#D9D9D9" transform="translate(115,424)"/>
<path className='shirt-body' d="M0 0 C1.32 0 2.64 0 4 0 C4 0.66 4 1.32 4 2 C5.32 2.33 6.64 2.66 8 3 C8 4.65 8 6.3 8 8 C6.35 7.67 4.7 7.34 3 7 C3 6.01 3 5.02 3 4 C2.34 4 1.68 4 1 4 C0.67 2.68 0.34 1.36 0 0 Z " fill="#D0D0D0" transform="translate(260,576)"/>
<path className='shirt-body' d="M0 0 C0.66 0.66 1.32 1.32 2 2 C1.9765625 4.3828125 1.9765625 4.3828125 1.625 7.125 C1.51414062 8.03507813 1.40328125 8.94515625 1.2890625 9.8828125 C1.19367188 10.58148438 1.09828125 11.28015625 1 12 C0.34 12 -0.32 12 -1 12 C-1.33 12.99 -1.66 13.98 -2 15 C-2.66 13.35 -3.32 11.7 -4 10 C-3.01 9.67 -2.02 9.34 -1 9 C-1.20625 8.071875 -1.4125 7.14375 -1.625 6.1875 C-2 3 -2 3 0 0 Z " fill="#A2A2A2" transform="translate(94,245)"/>
<path className='shirt-body' d="M0 0 C0.33 0 0.66 0 1 0 C1.16988369 2.18725251 1.33575269 4.37481701 1.5 6.5625 C1.5928125 7.78066406 1.685625 8.99882813 1.78125 10.25390625 C1.99102728 13.84634216 2.03704015 17.40247543 2 21 C0.16314032 17.75436235 -0.60315106 14.72643721 -1.25 11.0625 C-1.53617187 9.53302734 -1.53617187 9.53302734 -1.828125 7.97265625 C-2.01596113 4.72394496 -1.42622022 2.88969247 0 0 Z " fill="#C9C9C9" transform="translate(69,91)"/>
<path className='shirt-body' d="M0 0 C0.66 0.99 1.32 1.98 2 3 C1.67 3.66 1.34 4.32 1 5 C1.99 5.33 2.98 5.66 4 6 C4.66 5.67 5.32 5.34 6 5 C6.66 6.32 7.32 7.64 8 9 C5.75 10.125 5.75 10.125 3 11 C1.68 10.34 0.36 9.68 -1 9 C-0.67 6.03 -0.34 3.06 0 0 Z " fill="#C3C3C3" transform="translate(397,226)"/>
<path className='shirt-body' d="M0 0 C4.55390645 1.51796882 6.56762034 4.97778182 9 9 C9.875 12.5 9.875 12.5 10 15 C9.01 14.67 8.02 14.34 7 14 C6.28050817 12.35544725 5.63028587 10.68076231 5 9 C3.39384686 5.96559042 1.70190796 2.98158684 0 0 Z " fill="#909090" transform="translate(73,165)"/>
<path className='shirt-body' d="M0 0 C5.61 0 11.22 0 17 0 C16.67 0.66 16.34 1.32 16 2 C7.585 2.495 7.585 2.495 -1 3 C-0.67 2.01 -0.34 1.02 0 0 Z " fill="#C0C0C0" transform="translate(290,30)"/>
<path className='shirt-body' d="M0 0 C0.33 0.99 0.66 1.98 1 3 C1.96421875 2.77183594 2.9284375 2.54367188 3.921875 2.30859375 C5.18515625 2.02113281 6.4484375 1.73367187 7.75 1.4375 C9.00296875 1.14746094 10.2559375 0.85742188 11.546875 0.55859375 C14.59473748 0.06555717 16.17641828 -0.07666879 19 1 C11.84466021 3.60758587 5.59762024 4.38999191 -2 4 C-2 3.01 -2 2.02 -2 1 C-1.34 0.67 -0.68 0.34 0 0 Z " fill="#C3BAB8" transform="translate(399,247)"/>
<path className='shirt-body' d="M0 0 C2.82378039 1.03538614 3.8243145 1.66619755 5.25 4.375 C6.33362816 8.16769857 6.06417717 11.2753799 5 15 C4.87625 14.030625 4.7525 13.06125 4.625 12.0625 C4.315625 10.5465625 4.315625 10.5465625 4 9 C3.34 8.67 2.68 8.34 2 8 C1.3671875 6.15234375 1.3671875 6.15234375 0.875 3.9375 C0.70742187 3.20402344 0.53984375 2.47054687 0.3671875 1.71484375 C0.24601562 1.14894531 0.12484375 0.58304688 0 0 Z " fill="#ABABAB" transform="translate(65,150)"/>
<path className='shirt-body' d="M0 0 C0.66 1.32 1.32 2.64 2 4 C2.556875 4.99 2.556875 4.99 3.125 6 C4 8 4 8 4 12 C3.34 12 2.68 12 2 12 C1.67 13.65 1.34 15.3 1 17 C0.67 17 0.34 17 0 17 C0 11.39 0 5.78 0 0 Z " fill="#CECECE" transform="translate(111,544)"/>
<path className='shirt-body' d="M0 0 C0.66 0 1.32 0 2 0 C2 1.65 2 3.3 2 5 C2.66 5.33 3.32 5.66 4 6 C3.34 6 2.68 6 2 6 C2 8.97 2 11.94 2 15 C1.34 15 0.68 15 0 15 C0 10.05 0 5.1 0 0 Z " fill="#CCCCCC" transform="translate(110,317)"/>
<path className='shirt-body' d="M0 0 C0.66 0 1.32 0 2 0 C3.4807848 2.9615696 3.35314037 5.83506295 3.5625 9.125 C3.64628906 10.40632813 3.73007813 11.68765625 3.81640625 13.0078125 C3.90728516 14.48894531 3.90728516 14.48894531 4 16 C3.34 16 2.68 16 2 16 C0.89485234 12.68455701 0.67892369 9.79589889 0.4375 6.3125 C0.35371094 5.13300781 0.26992187 3.95351563 0.18359375 2.73828125 C0.12300781 1.83464844 0.06242188 0.93101563 0 0 Z " fill="#9A9A9A" transform="translate(250,41)"/>
<path className='shirt-body' d="M0 0 C0.33 0.66 0.66 1.32 1 2 C1.66 2 2.32 2 3 2 C3.05447047 3.41623216 3.09300508 4.83308191 3.125 6.25 C3.14820313 7.03890625 3.17140625 7.8278125 3.1953125 8.640625 C2.9828378 11.20731941 2.28654105 12.7916067 1 15 C0.92652344 14.09507813 0.92652344 14.09507813 0.8515625 13.171875 C0.77679688 12.37265625 0.70203125 11.5734375 0.625 10.75 C0.55539063 9.96109375 0.48578125 9.1721875 0.4140625 8.359375 C-0.01507113 5.914123 -0.78600638 4.15163097 -2 2 C-1.34 1.34 -0.68 0.68 0 0 Z " fill="#D0D0D0" transform="translate(252,37)"/>
<path className='shirt-body' d="M0 0 C0.66 0 1.32 0 2 0 C2.16435547 0.84884766 2.16435547 0.84884766 2.33203125 1.71484375 C2.49058594 2.44832031 2.64914063 3.18179688 2.8125 3.9375 C2.96332031 4.66839844 3.11414063 5.39929688 3.26953125 6.15234375 C3.51058594 6.76207031 3.75164062 7.37179688 4 8 C4.99 8.33 5.98 8.66 7 9 C5.35 9.66 3.7 10.32 2 11 C1.87625 9.865625 1.7525 8.73125 1.625 7.5625 C1.41875 6.386875 1.2125 5.21125 1 4 C0.34 3.67 -0.32 3.34 -1 3 C-0.67 2.01 -0.34 1.02 0 0 Z " fill="#BEBEBE" transform="translate(86,193)"/>
<path className='shirt-body' d="M0 0 C0.66 0.33 1.32 0.66 2 1 C1.979375 2.134375 1.95875 3.26875 1.9375 4.4375 C1.9293241 9.00782755 2.41308664 13.47238262 3 18 C2.34 18.33 1.68 18.66 1 19 C-0.93833398 12.36801431 -1.05268874 6.81402575 0 0 Z " fill="#D2D2D1" transform="translate(116,467)"/>
<path className='shirt-body' d="M0 0 C0.66 0 1.32 0 2 0 C2.95465783 2.16967689 3.14401212 3.56328793 2.3984375 5.82421875 C1.64129615 7.5684743 0.82390802 9.28627131 0 11 C-0.66 11 -1.32 11 -2 11 C-1 3.57142857 -1 3.57142857 0 0 Z " fill="#D4D4D5" transform="translate(43,117)"/>
<path className='shirt-body' d="M0 0 C0.99 0 1.98 0 3 0 C3.20496094 0.62648438 3.40992188 1.25296875 3.62109375 1.8984375 C3.89050781 2.71570313 4.15992188 3.53296875 4.4375 4.375 C4.83775391 5.59316406 4.83775391 5.59316406 5.24609375 6.8359375 C5.95179729 9.01031799 5.95179729 9.01031799 7 11 C6.01 11 5.02 11 4 11 C2 8 2 8 2 4 C1.01 4 0.02 4 -1 4 C-0.67 2.68 -0.34 1.36 0 0 Z " fill="#D1D1D1" transform="translate(242,566)"/>
<path className='shirt-body' d="M0 0 C0.66 0.33 1.32 0.66 2 1 C1.835 1.7425 1.67 2.485 1.5 3.25 C0.88074304 6.19006578 0.88074304 6.19006578 1 10 C0.01 10.33 -0.98 10.66 -2 11 C-3.31826804 7.04519588 -2.29536133 4.88608399 -1 1 C-0.67 0.67 -0.34 0.34 0 0 Z " fill="#D4D4D4" transform="translate(97,148)"/>
<path className='shirt-body' d="M0 0 C0.33 0 0.66 0 1 0 C1.38971999 2.10149011 1.76131477 4.2063482 2.125 6.3125 C2.33382813 7.48425781 2.54265625 8.65601563 2.7578125 9.86328125 C3 13 3 13 1 16 C0.63409254 14.27327966 0.28277805 12.54346345 -0.0625 10.8125 C-0.35833984 9.36810547 -0.35833984 9.36810547 -0.66015625 7.89453125 C-1.00423947 4.96389138 -0.74164697 2.83692932 0 0 Z " fill="#F6F6F6" transform="translate(399,444)"/>
<path className='shirt-body' d="M0 0 C1.65 0 3.3 0 5 0 C5.33 2.31 5.66 4.62 6 7 C5.34 6.34 4.68 5.68 4 5 C3.01 5.495 3.01 5.495 2 6 C2 5.34 2 4.68 2 4 C1.01 3.67 0.02 3.34 -1 3 C-0.67 2.01 -0.34 1.02 0 0 Z " fill="#B3B3B3" transform="translate(80,184)"/>
<path className='shirt-body' d="M0 0 C2.97 0.495 2.97 0.495 6 1 C6.33 4.3 6.66 7.6 7 11 C6.01 9.68 5.02 8.36 4 7 C3.278125 6.13375 2.55625 5.2675 1.8125 4.375 C0 2 0 2 0 0 Z " fill="#ACACAC" transform="translate(76,166)"/>
<path className='shirt-body' d="M0 0 C-4.19937513 2.79958342 -6.09705438 3.11598878 -11.125 3.0625 C-12.22070312 3.05347656 -13.31640625 3.04445312 -14.4453125 3.03515625 C-15.70988281 3.01775391 -15.70988281 3.01775391 -17 3 C-17 2.67 -17 2.34 -17 2 C-11.23918159 0.7017874 -5.91260345 -0.25706972 0 0 Z " fill="#C0C0C0" transform="translate(286,33)"/>
<path className='shirt-body' d="M0 0 C0.33 0 0.66 0 1 0 C1 2.31 1 4.62 1 7 C1.66 7 2.32 7 3 7 C3 8.98 3 10.96 3 13 C2.34 13 1.68 13 1 13 C-0.9078584 9.8250906 -1.1609041 7.89414789 -0.625 4.25 C-0.51414062 3.45078125 -0.40328125 2.6515625 -0.2890625 1.828125 C-0.19367188 1.22484375 -0.09828125 0.6215625 0 0 Z " fill="#A4A4A4" transform="translate(394,230)"/>
<path className='shirt-body' d="M0 0 C0.33 0 0.66 0 1 0 C1.042721 1.66611905 1.04063832 3.33382885 1 5 C0.67 5.33 0.34 5.66 0 6 C-0.04080783 7.99958364 -0.04254356 10.00045254 0 12 C0.66 11.34 1.32 10.68 2 10 C2 11.32 2 12.64 2 14 C1.01 14.33 0.02 14.66 -1 15 C-2 14 -2 14 -2.09765625 11.71484375 C-2.08605469 10.79832031 -2.07445313 9.88179688 -2.0625 8.9375 C-2.05347656 8.01839844 -2.04445313 7.09929687 -2.03515625 6.15234375 C-2.02355469 5.44207031 -2.01195313 4.73179687 -2 4 C-1.34 4 -0.68 4 0 4 C0 2.68 0 1.36 0 0 Z " fill="#D0D0D0" transform="translate(112,343)"/>
<path className='shirt-body' d="M0 0 C4 2 4 2 6 5 C5.625 7.1875 5.625 7.1875 5 9 C4.01 9 3.02 9 2 9 C1.34 6.03 0.68 3.06 0 0 Z " fill="#A1A1A1" transform="translate(97,224)"/>
<path className='shirt-body' d="M0 0 C-2 3 -2 3 -4.1640625 3.51171875 C-4.97617187 3.56972656 -5.78828125 3.62773437 -6.625 3.6875 C-7.85089844 3.78611328 -7.85089844 3.78611328 -9.1015625 3.88671875 C-9.72804688 3.92410156 -10.35453125 3.96148438 -11 4 C-8.54493529 0.31740294 -4.36534139 -2.1826707 0 0 Z " fill="#ABABAB" transform="translate(310,27)"/>
<path className='shirt-body' d="M0 0 C0.99 0.33 1.98 0.66 3 1 C3 1.66 3 2.32 3 3 C4.32 3.66 5.64 4.32 7 5 C7 5.33 7 5.66 7 6 C4.6875 6.3125 4.6875 6.3125 2 6 C0.1875 3.5 0.1875 3.5 -1 1 C-0.67 0.67 -0.34 0.34 0 0 Z " fill="#E4E4E4" transform="translate(225,569)"/>
<path className='shirt-body' d="M0 0 C0.99 1.32 1.98 2.64 3 4 C-2.625 6 -2.625 6 -6 6 C-5.67 5.01 -5.34 4.02 -5 3 C-4.34 3 -3.68 3 -3 3 C-3 2.34 -3 1.68 -3 1 C-2.01 0.67 -1.02 0.34 0 0 Z " fill="#B4B4B4" transform="translate(303,24)"/>
<path className='shirt-body' d="M0 0 C1.32 0.33 2.64 0.66 4 1 C3.01 1.495 3.01 1.495 2 2 C2 3.32 2 4.64 2 6 C-0.97 6 -3.94 6 -7 6 C-6.34 5.01 -5.68 4.02 -5 3 C-3.02 3.66 -1.04 4.32 1 5 C0.67 3.35 0.34 1.7 0 0 Z " fill="#CBCBCB" transform="translate(228,578)"/>
<path className='shirt-body' d="M0 0 C0.99 0.495 0.99 0.495 2 1 C2 1.66 2 2.32 2 3 C2.99 3.33 3.98 3.66 5 4 C4.67 4.66 4.34 5.32 4 6 C4.99 6.33 5.98 6.66 7 7 C5.02 7.99 5.02 7.99 3 9 C0 3.375 0 3.375 0 0 Z " fill="#A4A4A4" transform="translate(80,225)"/>
<path className='shirt-body' d="M0 0 C1.98 0.495 1.98 0.495 4 1 C3.625 3.4375 3.625 3.4375 3 6 C2.01 6.495 2.01 6.495 1 7 C1 6.34 1 5.68 1 5 C0.34 5 -0.32 5 -1 5 C-0.67 3.35 -0.34 1.7 0 0 Z " fill="#BFBFBF" transform="translate(402,210)"/>
<path className='shirt-body' d="M0 0 C0.433125 0.495 0.86625 0.99 1.3125 1.5 C2.99740483 3.33218192 2.99740483 3.33218192 6 3 C6 4.98 6 6.96 6 9 C3 8 3 8 1.3125 5.0625 C0 2 0 2 0 0 Z " fill="#A8A8A8" transform="translate(78,176)"/>
<path className='shirt-body' d="M0 0 C0.66 0.33 1.32 0.66 2 1 C1.34 2.98 0.68 4.96 0 7 C-1.32 6.67 -2.64 6.34 -4 6 C-2.25 1.125 -2.25 1.125 0 0 Z " fill="#BCBCBC" transform="translate(159,20)"/>
<path className='shirt-body' d="M0 0 C0.33 0.66 0.66 1.32 1 2 C2.65 2 4.3 2 6 2 C4.68 2.33 3.36 2.66 2 3 C2.33 3.99 2.66 4.98 3 6 C0.03 5.505 0.03 5.505 -3 5 C-2.34 4.67 -1.68 4.34 -1 4 C-0.34786708 1.97536745 -0.34786708 1.97536745 0 0 Z " fill="#CCCCCC" transform="translate(143,561)"/>
<path className='shirt-body' d="M0 0 C0.66 0 1.32 0 2 0 C0.66511872 3.59391114 -0.96022723 6.75490696 -3 10 C-3.66 9.67 -4.32 9.34 -5 9 C-3.35 6.03 -1.7 3.06 0 0 Z " fill="#D0D0D0" transform="translate(416,169)"/>
<path className='shirt-body' d="M0 0 C1.85776765 3.13498292 2.20140476 5.37471432 2 9 C1.34 9 0.68 9 0 9 C-0.33 9.66 -0.66 10.32 -1 11 C-1.02688151 9.35425434 -1.04634123 7.70838587 -1.0625 6.0625 C-1.07410156 5.14597656 -1.08570312 4.22945313 -1.09765625 3.28515625 C-1 1 -1 1 0 0 Z " fill="#D1D1D1" transform="translate(115,424)"/>
<path className='shirt-body' d="M0 0 C-7.0728972 3.69719626 -7.0728972 3.69719626 -10 4 C-10.99 3.34 -11.98 2.68 -13 2 C-11.21089097 1.47044766 -9.41860852 0.9516063 -7.625 0.4375 C-6.62726563 0.14746094 -5.62953125 -0.14257812 -4.6015625 -0.44140625 C-2 -1 -2 -1 0 0 Z " fill="#B2B2B2" transform="translate(302,11)"/>
<path className='shirt-body' d="M0 0 C2 3 2 3 2 7 C0 6.33333333 -2 5.66666667 -4 5 C-4 4.34 -4 3.68 -4 3 C-3.01 2.67 -2.02 2.34 -1 2 C-0.67 1.34 -0.34 0.68 0 0 Z " fill="#808080" transform="translate(102,238)"/>
<path className='shirt-body' d="M0 0 C0.66 0 1.32 0 2 0 C1.125 4.75 1.125 4.75 0 7 C-0.99 6.67 -1.98 6.34 -3 6 C-2.01 4.02 -1.02 2.04 0 0 Z " fill="#A3A3A3" transform="translate(401,215)"/>
<path className='shirt-body' d="M0 0 C0.66 0 1.32 0 2 0 C3.38232443 1.62626404 4.71937515 3.2925002 6 5 C4.35 5 2.7 5 1 5 C0.67 3.35 0.34 1.7 0 0 Z " fill="#CACACA" transform="translate(199,578)"/>
<path className='shirt-body' d="M0 0 C0.99 1.32 1.98 2.64 3 4 C1.35 4.66 -0.3 5.32 -2 6 C-2 2 -2 2 0 0 Z " fill="#CDCDCD" transform="translate(402,231)"/>
<path className='shirt-body' d="M0 0 C1.98 0.495 1.98 0.495 4 1 C2.35 2.65 0.7 4.3 -1 6 C-0.67 4.02 -0.34 2.04 0 0 Z " fill="#CECECE" transform="translate(55,81)"/>
<path className='shirt-body' d="M0 0 C1.65 0 3.3 0 5 0 C5.33 0.66 5.66 1.32 6 2 C3.69 2.33 1.38 2.66 -1 3 C-0.67 2.01 -0.34 1.02 0 0 Z " fill="#B5B6B5" transform="translate(290,30)"/>
<path className='shirt-body' d="M0 0 C0.99 0 1.98 0 3 0 C3 0.66 3 1.32 3 2 C3.66 2.33 4.32 2.66 5 3 C4.67 4.32 4.34 5.64 4 7 C0 2.25 0 2.25 0 0 Z " fill="#B7B6B5" transform="translate(173,23)"/>
</svg>
